{"glyphs":{"$":{"x_min":0,"x_max":620,"ha":620,"o":"m 73 141 l 152 179 l 157 179 q 204 84 282 74 l 282 376 q 224 393 180 424 q 113 472 113 553 q 113 640 176 697 q 219 737 282 745 l 282 830 l 333 854 l 338 854 l 338 746 q 431 735 485 636 l 408 599 l 403 599 q 378 650 338 661 l 338 457 q 430 438 488 380 q 547 322 547 230 q 547 138 477 64 q 419 4 338 -7 l 338 -93 l 287 -117 l 282 -117 l 282 -9 q 149 0 73 141 z m 282 472 l 282 659 q 257 652 240 634 q 210 604 210 560 q 210 521 236 499 q 254 483 282 472 z m 338 362 l 338 79 q 378 91 413 129 q 448 169 448 233 q 448 282 417 315 q 389 346 338 362 z"},"<":{"x_min":0,"x_max":653,"ha":653,"o":"m 73 324 l 73 329 l 113 414 l 516 585 l 556 500 l 556 496 l 222 360 l 556 225 l 556 220 l 516 136 z"},"'":{"x_min":0,"x_max":228,"ha":228,"o":"m 149 757 l 154 757 l 154 521 l 78 484 l 73 484 l 73 721 z"},"=":{"x_min":0,"x_max":593,"ha":593,"o":"m 73 413 l 73 418 l 113 502 l 520 502 l 520 497 l 480 413 z m 73 235 l 73 240 l 113 324 l 520 324 l 520 319 l 480 235 z"},"a":{"x_min":0,"x_max":518,"ha":518,"o":"m 347 -20 l 347 49 q 305 -9 242 -10 q 150 -10 100 45 q 49 101 49 176 q 49 254 104 309 q 157 361 242 361 q 302 361 345 308 q 336 381 327 399 q 294 464 239 464 l 125 464 l 125 469 l 162 547 l 239 547 q 348 547 409 434 q 444 370 444 269 l 444 24 l 352 -20 z m 144 177 q 144 133 170 103 q 197 73 242 73 q 287 73 317 104 q 346 133 346 175 q 346 219 315 249 q 285 278 243 278 q 197 278 170 248 q 144 218 144 177 z"},"L":{"x_min":0,"x_max":541,"ha":541,"o":"m 220 0 q 98 0 98 104 l 98 713 l 190 757 l 195 757 l 195 104 q 195 83 220 83 l 388 83 q 446 83 460 140 l 465 140 l 539 105 q 509 0 388 0 z"},"3":{"x_min":0,"x_max":610,"ha":610,"o":"m 63 141 q 63 141 143 179 l 147 179 q 202 73 291 73 q 360 73 403 123 q 439 165 439 229 q 439 295 408 329 q 371 367 290 367 l 232 422 l 386 654 l 129 654 l 129 659 l 166 737 l 393 737 q 480 737 480 670 q 480 633 436 571 l 342 444 q 415 442 471 393 q 537 335 537 230 q 537 131 472 61 q 405 -10 291 -10 q 146 -10 63 141 z"},"J":{"x_min":0,"x_max":639,"ha":639,"o":"m 39 141 l 118 179 l 123 179 q 176 73 267 73 q 358 73 410 179 q 443 247 443 369 l 443 633 q 443 654 419 654 l 159 654 l 159 659 l 196 737 l 419 737 q 541 737 541 633 l 541 369 q 541 227 494 141 q 412 -10 267 -10 q 121 -10 39 141 z"},"V":{"x_min":0,"x_max":720,"ha":720,"o":"m 98 713 l 190 757 l 195 757 l 195 369 q 195 233 229 179 q 292 73 372 73 q 462 73 516 179 q 549 245 549 369 q 549 494 516 559 q 472 644 386 684 q 386 684 423 757 l 428 757 q 534 721 600 597 q 646 508 646 369 q 646 227 600 141 q 518 -10 372 -10 q 227 -10 145 141 q 98 227 98 369 z"},"\"":{"x_min":0,"x_max":365,"ha":365,"o":"m 287 757 l 292 757 l 292 521 l 215 484 l 210 484 l 210 721 z m 149 757 l 154 757 l 154 521 l 78 484 l 73 484 l 73 721 z"},"7":{"x_min":0,"x_max":478,"ha":478,"o":"m 108 22 l 334 654 l 5 654 l 5 659 l 42 737 l 334 737 q 429 737 429 649 q 429 628 396 540 l 201 -20 l 196 -20 z"},"S":{"x_min":0,"x_max":591,"ha":591,"o":"m 59 141 q 59 141 138 179 l 143 179 q 195 73 286 73 q 349 73 398 129 q 434 170 434 233 q 434 282 402 315 q 366 354 295 369 q 221 384 166 424 q 98 473 98 553 q 98 641 161 697 q 216 747 301 747 q 410 747 471 636 l 394 599 l 389 599 q 356 664 301 664 q 254 664 225 634 q 196 604 196 560 q 196 521 222 499 q 254 470 323 457 q 414 439 473 380 q 532 321 532 230 q 532 138 462 64 q 392 -10 286 -10 q 140 -10 59 141 z"},"}":{"x_min":0,"x_max":440,"ha":440,"o":"m 24 -117 l 24 -112 l 62 -34 q 132 -34 174 15 q 210 56 210 127 l 210 610 q 210 683 175 723 q 133 771 62 771 l 24 771 l 24 776 l 62 854 q 173 854 242 784 q 308 716 308 610 l 308 413 l 416 413 l 416 408 l 376 324 l 308 324 l 308 127 q 308 21 242 -46 q 173 -117 62 -117 z"},"Z":{"x_min":0,"x_max":590,"ha":590,"o":"m 153 0 q 59 0 59 65 q 59 121 105 191 l 401 654 l 91 654 l 91 659 l 128 737 l 401 737 q 498 737 498 671 q 498 621 449 546 l 153 83 l 381 83 q 438 83 453 140 l 458 140 l 531 105 q 502 0 381 0 z"},"x":{"x_min":0,"x_max":515,"ha":515,"o":"m 139 -20 l 134 -20 l 49 21 l 191 254 q 125 292 87 351 q 51 407 51 513 l 144 557 l 149 557 q 149 417 169 386 q 198 342 232 321 l 376 557 l 381 557 l 466 516 l 322 281 q 396 242 431 186 q 466 130 466 24 l 374 -20 l 369 -20 q 369 104 348 151 q 331 192 282 215 z"},")":{"x_min":0,"x_max":382,"ha":382,"o":"m 61 -117 l 24 -44 q 111 -3 154 81 q 187 146 187 271 l 187 466 q 187 591 154 656 q 111 741 24 782 l 61 854 l 66 854 q 172 818 238 694 q 285 606 285 466 l 285 271 q 285 131 238 43 q 172 -81 66 -117 z"},"&":{"x_min":0,"x_max":763,"ha":763,"o":"m 389 -20 q 209 -20 136 60 q 73 128 73 229 q 73 327 146 391 q 168 411 185 419 q 117 477 117 555 q 117 651 178 700 q 235 747 320 747 q 429 747 490 636 l 413 599 l 408 599 q 375 664 319 664 q 270 664 240 634 q 209 603 209 555 q 209 516 237 487 q 267 455 322 452 q 377 449 417 449 q 417 438 432 386 q 449 328 484 301 l 590 477 l 595 477 l 667 437 l 562 261 q 610 239 650 194 q 689 149 689 24 l 597 -20 l 592 -20 q 592 92 583 132 q 575 166 521 195 z m 336 372 q 252 372 217 337 q 170 291 170 228 q 170 166 206 120 q 242 74 344 74 l 443 234 q 376 264 336 372 z"},"_":{"x_min":0,"x_max":593,"ha":593,"o":"m 73 -200 l 73 -195 l 113 -111 l 520 -111 l 520 -116 l 480 -200 z"},"v":{"x_min":0,"x_max":573,"ha":573,"o":"m 88 513 l 181 557 l 186 557 l 186 269 q 186 178 206 138 q 238 73 293 73 q 349 73 381 138 q 402 178 402 269 q 402 349 381 399 q 355 463 296 484 l 333 557 l 338 557 q 422 523 464 434 q 500 360 500 269 q 500 168 464 103 q 403 -10 293 -10 q 184 -10 123 103 q 88 167 88 269 z"},"O":{"x_min":0,"x_max":695,"ha":695,"o":"m 171 369 q 171 243 204 179 q 258 73 348 73 q 438 73 491 179 q 524 245 524 369 q 524 493 491 559 q 438 664 348 664 q 257 664 204 559 q 171 493 171 369 z m 120 597 q 202 747 348 747 q 494 747 575 597 q 622 510 622 369 q 622 227 575 141 q 494 -10 348 -10 q 202 -10 120 141 q 73 227 73 369 q 73 511 120 597 z"},"(":{"x_min":0,"x_max":382,"ha":382,"o":"m 321 -117 l 316 -117 q 210 -81 145 43 q 98 131 98 271 l 98 466 q 98 606 145 694 q 210 818 316 854 l 321 854 l 358 782 q 271 741 229 656 q 195 591 195 466 l 195 271 q 195 146 229 81 q 271 -3 358 -44 z"},"C":{"x_min":0,"x_max":667,"ha":667,"o":"m 608 231 q 599 185 575 141 q 493 -10 348 -10 q 202 -10 120 141 q 73 227 73 369 q 73 511 120 597 q 202 747 348 747 q 494 747 575 597 l 496 559 l 491 559 q 438 664 348 664 q 257 664 204 559 q 171 493 171 369 q 171 243 204 179 q 258 73 348 73 q 438 73 491 179 l 604 231 z"},"W":{"x_min":0,"x_max":1146,"ha":1146,"o":"m 622 757 l 622 369 q 622 245 655 179 q 708 73 799 73 q 889 73 942 179 q 976 245 976 369 q 976 494 942 559 q 899 644 813 684 l 850 757 l 854 757 q 960 721 1026 597 q 1073 508 1073 369 q 1073 227 1026 141 q 945 -10 799 -10 q 655 -10 573 137 q 491 -10 348 -10 q 202 -10 120 141 q 73 227 73 369 q 73 508 120 597 q 186 721 292 757 l 297 757 l 333 684 q 247 643 204 559 q 171 493 171 369 q 171 245 204 179 q 257 73 348 73 q 438 73 491 179 q 524 245 524 369 l 524 713 l 617 757 z"},"A":{"x_min":0,"x_max":710,"ha":710,"o":"m 88 -20 l 88 369 q 88 511 135 597 q 217 747 362 747 q 508 747 590 597 q 637 510 637 369 q 637 229 590 141 q 524 17 418 -20 l 413 -20 l 376 53 q 463 94 506 179 q 533 233 538 327 l 186 327 l 186 24 l 93 -20 z m 187 410 l 538 410 q 533 504 506 559 q 453 664 362 664 q 272 664 219 559 q 191 504 187 410 z"},"f":{"x_min":0,"x_max":408,"ha":408,"o":"m 88 -20 l 88 469 q 88 570 123 634 q 185 747 293 747 l 359 747 l 359 742 l 322 664 l 293 664 q 238 664 206 600 q 188 565 186 488 l 359 488 l 359 483 l 323 405 l 186 405 l 186 24 l 93 -20 z"},"Q":{"x_min":0,"x_max":695,"ha":695,"o":"m 482 -20 l 477 -20 l 454 14 q 406 -10 348 -10 q 202 -10 120 141 q 73 227 73 369 q 73 511 120 597 q 202 747 348 747 q 494 747 575 597 q 622 510 622 369 q 622 227 575 141 q 555 103 530 75 l 568 21 z m 204 179 q 258 73 348 73 q 378 73 404 85 l 308 222 l 394 263 l 399 263 l 476 152 q 484 165 491 179 q 524 243 524 369 q 524 493 491 559 q 438 664 348 664 q 256 664 204 559 q 171 493 171 369 q 171 245 204 179 z"},"w":{"x_min":0,"x_max":872,"ha":872,"o":"m 485 557 l 485 269 q 485 179 505 138 q 536 73 593 73 q 648 73 681 138 q 701 179 701 269 q 701 349 681 399 q 655 463 596 484 l 632 557 l 637 557 q 721 523 764 434 q 799 360 799 269 q 799 168 764 103 q 702 -10 593 -10 q 496 -10 436 80 q 376 -10 279 -10 q 169 -10 108 103 q 73 168 73 269 q 73 360 108 434 q 151 523 235 557 l 240 557 l 276 484 q 217 463 191 399 q 171 349 171 269 q 171 179 191 138 q 224 73 279 73 q 335 73 367 138 q 387 178 387 269 l 387 513 l 480 557 z"},"-":{"x_min":0,"x_max":593,"ha":593,"o":"m 73 324 l 73 329 l 113 413 l 520 413 l 520 408 l 480 324 z"},"E":{"x_min":0,"x_max":577,"ha":577,"o":"m 210 0 q 88 0 88 104 l 88 369 q 88 511 135 597 q 217 747 362 747 l 493 747 l 493 742 l 457 664 l 362 664 q 271 664 219 559 q 191 504 187 410 l 464 410 l 464 405 l 427 327 l 186 327 l 186 104 q 186 83 210 83 l 402 83 q 460 83 475 140 l 479 140 l 553 105 q 523 0 402 0 z"},"s":{"x_min":0,"x_max":490,"ha":490,"o":"m 59 102 q 59 102 136 138 l 141 138 q 173 73 229 73 q 282 73 312 108 q 335 137 335 171 q 335 207 310 228 q 284 250 234 257 q 170 268 133 294 q 80 332 80 403 q 80 471 142 515 q 187 547 243 547 q 339 547 383 454 l 306 418 l 301 418 q 279 464 243 464 q 214 464 196 449 q 173 432 173 401 q 173 371 198 358 q 223 344 274 334 q 337 321 377 291 q 431 249 431 166 q 431 102 375 45 q 322 -10 229 -10 q 119 -10 59 102 z"},">":{"x_min":0,"x_max":653,"ha":653,"o":"m 580 396 l 580 392 l 540 307 l 138 136 l 98 220 l 98 225 l 432 360 l 98 496 l 98 500 l 138 585 z"},"l":{"x_min":0,"x_max":293,"ha":293,"o":"m 98 -20 l 98 713 l 190 757 l 195 757 l 195 24 l 103 -20 z"},"8":{"x_min":0,"x_max":639,"ha":639,"o":"m 73 230 q 73 326 147 396 q 163 410 185 421 q 117 476 117 553 q 117 650 177 700 q 235 747 319 747 q 404 747 461 700 q 522 651 522 553 q 522 476 454 421 q 476 410 491 396 q 565 326 565 230 q 565 131 500 61 q 433 -10 319 -10 q 205 -10 139 61 q 73 131 73 230 z m 319 73 q 391 73 436 125 q 468 163 468 229 q 468 288 433 327 q 391 374 319 374 q 250 374 206 327 q 171 290 171 229 q 171 165 206 125 q 251 73 319 73 z m 214 560 q 214 509 236 487 q 274 450 319 450 q 369 450 402 487 q 424 512 424 560 q 424 610 396 640 q 367 670 319 670 q 272 670 243 640 q 214 610 214 560 z"},"\\":{"x_min":0,"x_max":476,"ha":476,"o":"m 396 -68 l 5 772 l 74 806 l 79 806 l 471 -35 l 401 -68 z"},"e":{"x_min":0,"x_max":551,"ha":551,"o":"m 478 184 q 469 138 450 103 q 388 -10 279 -10 q 171 -10 108 103 q 73 166 73 269 q 73 370 108 434 q 169 547 279 547 q 388 547 449 435 q 464 407 474 370 l 190 139 q 223 73 280 73 q 335 73 367 138 l 473 184 z m 172 231 l 367 399 q 335 464 279 464 q 224 464 191 399 q 171 359 171 269 q 171 249 172 231 z"},"b":{"x_min":0,"x_max":573,"ha":573,"o":"m 186 269 q 186 177 206 138 q 239 73 293 73 q 349 73 381 138 q 402 178 402 269 q 402 359 381 399 q 349 463 293 463 q 237 463 205 398 q 186 359 186 269 z m 186 496 q 234 547 293 547 q 403 547 464 434 q 500 369 500 269 q 500 167 464 103 q 402 -10 293 -10 q 186 -10 123 103 q 88 166 88 269 l 88 713 l 181 757 l 186 757 z"},"%":{"x_min":0,"x_max":1002,"ha":1002,"o":"m 337 552 q 337 615 310 649 q 290 675 253 675 q 219 675 197 649 q 169 616 169 552 q 169 486 197 454 q 220 428 253 428 q 289 428 310 454 q 337 487 337 552 z m 73 553 q 73 637 131 698 q 177 747 253 747 q 330 747 376 698 q 434 637 434 552 q 434 467 376 405 q 330 356 253 356 q 177 356 131 405 q 73 467 73 553 z m 833 186 q 833 249 805 283 q 785 309 749 309 q 714 309 692 283 q 664 250 664 186 q 664 121 692 88 q 715 62 749 62 q 784 62 805 88 q 833 121 833 186 z m 568 187 q 568 271 626 332 q 672 381 749 381 q 825 381 871 332 q 929 272 929 186 q 929 102 871 39 q 825 -10 749 -10 q 672 -10 626 39 q 568 101 568 187 z m 362 -20 l 293 14 l 640 757 l 645 757 l 713 724 l 367 -20 z"},"m":{"x_min":0,"x_max":872,"ha":872,"o":"m 387 -20 l 387 269 q 387 358 367 399 q 336 464 279 464 q 224 464 191 399 q 171 358 171 269 q 171 188 191 138 q 217 74 276 53 l 240 -20 l 235 -20 q 151 14 108 103 q 73 177 73 269 q 73 369 108 434 q 170 547 279 547 q 376 547 436 457 q 496 547 593 547 q 702 547 764 434 q 799 369 799 269 q 799 175 764 103 q 721 14 637 -20 l 632 -20 l 596 53 q 655 74 681 138 q 701 188 701 269 q 701 358 681 399 q 648 464 593 464 q 537 464 505 399 q 485 359 485 269 l 485 24 l 392 -20 z"},"#":{"x_min":0,"x_max":668,"ha":668,"o":"m 224 108 l 219 108 l 219 254 l 73 254 l 73 259 l 113 343 l 219 343 l 219 396 l 73 396 l 73 400 l 113 484 l 219 484 l 219 590 l 303 630 l 308 630 l 308 484 l 360 484 l 360 590 l 444 630 l 449 630 l 449 484 l 595 484 l 595 479 l 555 396 l 449 396 l 449 343 l 595 343 l 595 338 l 555 254 l 449 254 l 449 148 l 365 108 l 360 108 l 360 254 l 308 254 l 308 148 z m 308 343 l 360 343 l 360 396 l 308 396 z"},",":{"x_min":0,"x_max":297,"ha":297,"o":"m 166 136 l 171 136 q 224 83 224 17 q 224 -77 104 -140 l 83 -115 q 139 -59 139 -10 q 139 49 73 92 z"},"n":{"x_min":0,"x_max":558,"ha":558,"o":"m 73 -20 l 73 269 q 73 370 108 434 q 169 547 279 547 q 388 547 449 434 q 485 369 485 269 q 485 175 450 103 q 407 14 323 -20 l 318 -20 l 282 53 q 341 74 367 138 q 387 188 387 269 q 387 359 367 399 q 334 464 279 464 q 223 464 191 399 q 171 359 171 269 l 171 24 l 78 -20 z"},"h":{"x_min":0,"x_max":583,"ha":583,"o":"m 98 -20 l 98 713 l 190 757 l 195 757 l 195 496 q 240 547 303 547 q 413 547 474 434 q 509 369 509 269 q 509 175 474 103 q 432 14 348 -20 l 343 -20 l 306 53 q 365 74 391 138 q 412 188 412 269 q 412 359 391 399 q 358 464 303 464 q 248 464 215 399 q 195 359 195 269 l 195 24 l 103 -20 z"},"z":{"x_min":0,"x_max":514,"ha":514,"o":"m 143 0 q 49 0 49 65 q 49 114 110 186 l 335 454 l 82 454 l 82 459 l 118 537 l 335 537 q 430 537 430 472 q 430 427 368 354 l 143 83 l 315 83 q 373 83 387 140 l 392 140 l 465 105 q 436 0 315 0 z"},"B":{"x_min":0,"x_max":682,"ha":682,"o":"m 210 0 q 88 0 88 104 l 88 369 q 88 511 135 597 q 217 747 362 747 q 444 747 500 702 q 564 649 564 557 q 564 473 490 417 q 514 407 538 387 q 609 322 609 226 q 609 129 546 67 q 479 0 362 0 z m 362 369 l 186 369 l 186 369 l 186 104 q 186 83 210 83 l 362 83 q 434 83 479 131 q 511 166 511 223 q 511 283 479 319 q 437 369 362 369 z m 190 452 l 362 452 q 411 452 441 484 q 467 513 467 560 q 467 606 439 635 q 411 664 362 664 q 272 664 219 559 q 198 517 190 452 z"},"K":{"x_min":0,"x_max":660,"ha":660,"o":"m 98 -20 l 98 713 l 190 757 l 195 757 l 195 389 l 460 757 l 465 757 l 551 716 l 337 427 q 471 427 539 338 q 587 275 587 195 q 587 112 531 51 q 481 -4 418 -20 l 413 -20 l 376 53 q 421 62 447 89 q 489 132 489 195 q 489 264 452 300 q 407 344 337 344 q 273 344 230 293 q 195 252 195 188 l 195 24 l 103 -20 z"},"R":{"x_min":0,"x_max":702,"ha":702,"o":"m 186 327 l 338 327 q 430 327 469 372 q 515 424 515 491 q 515 570 468 619 q 424 664 362 664 q 272 664 219 559 q 186 493 186 369 z m 88 -20 l 88 369 q 88 511 135 597 q 217 747 362 747 q 484 747 554 657 q 612 583 612 491 q 612 407 553 334 q 515 287 458 265 l 629 21 l 543 -20 l 538 -20 l 354 244 l 186 244 l 186 24 l 93 -20 z"},"T":{"x_min":0,"x_max":521,"ha":521,"o":"m 211 -20 l 212 654 l 153 654 q 95 654 81 597 l 76 597 l 2 632 q 31 737 153 737 l 518 737 l 518 732 l 481 654 l 310 654 l 309 24 l 216 -20 z"},"P":{"x_min":0,"x_max":671,"ha":671,"o":"m 88 -20 l 88 369 q 88 511 135 597 q 217 747 362 747 q 484 747 554 657 q 612 583 612 491 q 612 407 553 334 q 480 244 338 244 l 186 244 l 186 24 l 93 -20 z m 186 327 l 338 327 q 430 327 469 372 q 515 424 515 491 q 515 570 468 619 q 424 664 362 664 q 272 664 219 559 q 186 493 186 369 z"},"|":{"x_min":0,"x_max":325,"ha":325,"o":"m 122 -117 l 122 818 l 198 854 l 203 854 l 203 -81 l 127 -117 z"},"t":{"x_min":0,"x_max":368,"ha":368,"o":"m 135 -20 l 135 454 l 10 454 l 10 459 l 46 537 l 135 537 l 135 713 l 228 757 l 233 757 l 233 537 l 358 537 l 358 532 l 322 454 l 233 454 l 233 24 l 140 -20 z"},"M":{"x_min":0,"x_max":1146,"ha":1146,"o":"m 524 -20 l 524 369 q 524 493 491 559 q 438 664 348 664 q 257 664 204 559 q 171 493 171 369 q 171 244 204 179 q 248 94 333 53 l 297 -20 l 292 -20 q 186 17 120 141 q 73 229 73 369 q 73 510 120 597 q 202 747 348 747 q 491 747 573 600 q 655 747 799 747 q 945 747 1026 597 q 1073 510 1073 369 q 1073 229 1026 141 q 960 17 854 -20 l 850 -20 l 813 53 q 899 94 942 179 q 976 244 976 369 q 976 493 942 559 q 889 664 799 664 q 708 664 655 559 q 622 493 622 369 l 622 24 l 529 -20 z"},"g":{"x_min":0,"x_max":568,"ha":568,"o":"m 191 138 q 223 73 279 73 q 334 73 367 138 q 387 178 387 269 q 387 359 367 399 q 335 464 279 464 q 223 464 190 399 q 171 359 171 269 q 171 178 191 138 z m 73 269 q 73 370 108 434 q 169 547 279 547 q 388 547 449 434 q 485 369 485 269 l 485 68 q 485 -32 450 -97 q 390 -210 279 -210 l 162 -210 l 162 -205 l 199 -127 l 279 -127 q 341 -127 367 -62 q 385 -18 385 39 q 337 -10 279 -10 q 171 -10 108 103 q 73 166 73 269 z"},"y":{"x_min":0,"x_max":583,"ha":583,"o":"m 485 557 l 485 68 q 485 -32 450 -97 q 390 -210 279 -210 l 162 -210 l 162 -205 l 199 -127 l 279 -127 q 341 -127 367 -62 q 385 -18 385 39 q 337 -10 279 -10 q 169 -10 108 103 q 73 168 73 269 q 73 360 108 434 q 151 523 235 557 l 240 557 l 276 484 q 217 463 191 399 q 171 349 171 269 q 171 178 191 138 q 224 73 279 73 q 335 73 367 138 q 387 178 387 269 l 387 513 l 480 557 z"},"@":{"x_min":0,"x_max":682,"ha":682,"o":"m 501 -20 l 455 -20 q 358 -13 312 24 q 252 72 252 146 q 252 232 312 280 q 364 320 455 327 l 495 327 q 491 366 461 406 q 417 464 348 464 q 258 464 204 358 q 171 292 171 168 q 171 43 204 -21 q 258 -127 348 -127 l 348 -210 q 202 -210 120 -60 q 73 26 73 168 q 73 311 120 396 q 203 547 348 547 q 454 547 527 465 q 594 391 594 295 l 594 24 z m 497 251 q 408 250 375 224 q 342 197 342 154 q 342 115 377 84 q 407 58 497 58 z"},"p":{"x_min":0,"x_max":568,"ha":568,"o":"m 201 138 q 233 73 289 73 q 345 73 377 138 q 397 178 397 269 q 397 359 377 399 q 345 464 289 464 q 233 464 201 399 q 181 359 181 269 q 181 178 201 138 z m 83 -220 l 83 269 q 83 370 118 434 q 180 547 289 547 q 396 547 459 434 q 495 371 495 269 q 495 167 460 103 q 398 -10 289 -10 q 226 -10 181 42 l 181 -176 l 88 -220 z"},"X":{"x_min":0,"x_max":624,"ha":624,"o":"m 134 -20 l 49 21 l 248 356 q 162 411 116 486 q 49 598 49 713 l 142 757 l 146 757 q 146 616 206 525 q 242 470 293 433 l 485 757 l 490 757 l 575 716 l 375 378 q 462 320 507 250 q 575 142 575 24 l 482 -20 l 478 -20 q 478 118 421 211 q 394 259 329 302 l 139 -20 z"},"*":{"x_min":0,"x_max":578,"ha":578,"o":"m 333 757 l 333 601 l 425 664 l 502 611 l 504 607 l 368 534 l 504 460 l 502 457 l 425 403 l 333 466 l 333 350 l 249 311 l 244 311 l 244 466 l 152 403 l 76 457 l 73 460 l 209 534 l 73 607 l 76 611 l 152 664 l 244 601 l 244 717 l 328 757 z"},"Y":{"x_min":0,"x_max":670,"ha":670,"o":"m 475 -20 l 475 259 q 413 188 321 188 q 195 188 117 287 q 59 361 59 466 q 59 578 118 655 q 167 720 229 757 l 233 757 l 270 684 q 228 655 202 617 q 156 550 156 466 q 156 379 204 325 q 252 271 321 271 q 387 271 431 321 q 475 371 475 437 l 475 713 l 567 757 l 572 757 l 572 24 l 479 -20 z"},"c":{"x_min":0,"x_max":536,"ha":536,"o":"m 478 184 q 469 138 450 103 q 388 -10 279 -10 q 171 -10 108 103 q 73 166 73 269 q 73 369 108 434 q 169 547 279 547 q 388 547 449 436 l 372 399 l 367 399 q 334 464 279 464 q 223 464 191 399 q 171 359 171 269 q 171 178 191 138 q 224 73 279 73 q 334 73 367 138 l 473 184 z"},"/":{"x_min":0,"x_max":476,"ha":476,"o":"m 74 -68 l 5 -35 l 396 806 l 401 806 l 471 772 l 79 -68 z"},"[":{"x_min":0,"x_max":422,"ha":422,"o":"m 361 -117 l 220 -117 q 98 -117 98 -13 l 98 750 q 98 854 220 854 l 397 854 l 397 850 l 361 771 l 220 771 q 195 771 195 750 l 195 -13 q 195 -34 220 -34 l 397 -34 l 397 -39 z"},"6":{"x_min":0,"x_max":667,"ha":667,"o":"m 575 597 l 496 559 l 491 559 q 437 664 348 664 q 257 664 204 559 q 171 493 171 369 q 234 470 347 471 q 460 471 528 399 q 594 329 594 230 q 594 131 528 61 q 461 -10 348 -10 q 202 -10 120 141 q 73 227 73 369 q 73 511 120 597 q 202 747 348 747 q 493 747 575 597 z m 348 387 q 286 387 239 339 q 199 298 199 229 q 199 168 237 126 q 285 73 348 73 q 420 73 463 125 q 497 165 497 229 q 497 298 464 334 q 417 387 348 387 z"},"r":{"x_min":0,"x_max":354,"ha":354,"o":"m 73 -20 l 73 269 q 73 370 108 434 q 169 547 279 547 l 345 547 l 345 542 l 308 464 l 279 464 q 223 464 191 399 q 171 359 171 269 l 171 24 l 78 -20 z"},"2":{"x_min":0,"x_max":640,"ha":640,"o":"m 192 0 q 73 0 73 97 q 73 253 305 357 q 447 421 447 517 q 447 582 417 617 q 376 664 306 664 q 216 664 162 559 l 157 559 l 78 597 q 160 747 306 747 q 424 747 486 676 q 546 609 546 512 q 546 375 359 286 q 161 192 161 114 q 161 83 192 83 l 417 83 q 474 83 489 140 l 494 140 l 567 105 q 538 0 417 0 z"},"{":{"x_min":0,"x_max":440,"ha":440,"o":"m 378 -117 q 267 -117 198 -46 q 132 21 132 127 l 132 324 l 24 324 l 24 329 l 64 413 l 132 413 l 132 610 q 132 716 198 784 q 267 854 378 854 l 416 854 l 416 850 l 378 771 q 308 771 266 723 q 229 681 229 610 l 229 127 q 229 55 265 15 q 307 -34 378 -34 l 416 -34 l 416 -39 z"},"9":{"x_min":0,"x_max":667,"ha":667,"o":"m 92 141 l 171 179 l 176 179 q 230 73 320 73 q 410 73 463 179 q 497 245 497 369 q 434 267 320 267 q 207 267 139 338 q 73 408 73 507 q 73 606 139 676 q 206 747 320 747 q 466 747 547 597 q 594 510 594 369 q 594 227 547 141 q 466 -10 320 -10 q 174 -10 92 141 z m 320 351 q 381 351 429 398 q 469 439 469 508 q 469 569 430 611 q 382 664 320 664 q 248 664 204 612 q 171 573 171 508 q 171 439 204 403 q 250 351 320 351 z"}," ":{"x_min":0,"x_max":391,"ha":391,"o":""},"I":{"x_min":0,"x_max":293,"ha":293,"o":"m 98 -20 l 98 713 l 190 757 l 195 757 l 195 24 l 103 -20 z"},"H":{"x_min":0,"x_max":710,"ha":710,"o":"m 98 -20 l 98 713 l 190 757 l 195 757 l 195 410 l 538 410 q 533 504 506 559 q 463 643 376 684 l 413 757 l 418 757 q 524 721 590 597 q 637 508 637 369 q 637 229 590 141 q 524 17 418 -20 l 413 -20 l 376 53 q 463 94 506 179 q 533 233 538 327 l 195 327 l 195 24 l 103 -20 z"},"4":{"x_min":0,"x_max":580,"ha":580,"o":"m 359 -20 l 359 175 l 119 175 q 24 175 24 241 q 24 277 49 313 l 359 757 q 457 757 457 661 l 457 258 l 541 258 l 541 253 l 504 175 l 457 175 l 457 24 l 364 -20 z m 359 258 l 359 616 l 112 258 z"},"~":{"x_min":0,"x_max":556,"ha":556,"o":"m 73 285 q 73 461 189 461 q 254 461 298 412 q 333 371 360 371 q 396 371 396 421 l 478 461 l 482 461 q 482 285 367 285 q 301 285 258 334 q 222 375 195 375 q 160 375 160 324 l 78 285 z"},"D":{"x_min":0,"x_max":710,"ha":710,"o":"m 210 0 q 88 0 88 104 l 88 369 q 88 511 135 597 q 217 747 362 747 q 508 747 590 597 q 637 511 637 369 q 637 246 589 153 q 510 0 362 0 z m 362 83 q 454 83 505 191 q 539 264 539 369 q 539 492 506 559 q 453 664 362 664 q 272 664 219 559 q 186 493 186 369 l 186 104 q 186 83 210 83 z"},"^":{"x_min":0,"x_max":645,"ha":645,"o":"m 73 531 l 258 717 l 342 757 l 347 757 l 572 531 l 487 491 l 482 491 l 322 648 l 163 491 l 158 491 z"},"0":{"x_min":0,"x_max":695,"ha":695,"o":"m 171 369 q 171 243 204 179 q 258 73 348 73 q 438 73 491 179 q 524 245 524 369 q 524 493 491 559 q 438 664 348 664 q 257 664 204 559 q 171 493 171 369 z m 120 597 q 202 747 348 747 q 494 747 575 597 q 622 510 622 369 q 622 227 575 141 q 494 -10 348 -10 q 202 -10 120 141 q 73 227 73 369 q 73 511 120 597 z"},"F":{"x_min":0,"x_max":552,"ha":552,"o":"m 88 -20 l 88 369 q 88 511 135 597 q 217 747 362 747 l 493 747 l 493 742 l 457 664 l 362 664 q 271 664 219 559 q 191 504 187 410 l 464 410 l 464 405 l 427 327 l 186 327 l 186 24 q 186 24 93 -20 z"},"`":{"x_min":0,"x_max":316,"ha":316,"o":"m 159 757 l 164 757 l 243 588 l 186 562 l 181 562 l 73 716 z"},"k":{"x_min":0,"x_max":576,"ha":576,"o":"m 98 -20 l 98 713 l 190 757 l 195 757 l 195 350 l 383 557 l 388 557 l 474 516 l 328 367 q 398 358 442 322 q 503 272 503 182 q 503 112 468 64 q 420 0 341 -20 l 336 -20 l 300 53 q 365 73 385 99 q 405 126 405 182 q 405 238 375 264 q 344 290 300 290 q 256 290 226 264 q 195 237 195 182 l 195 24 l 103 -20 z"},"u":{"x_min":0,"x_max":573,"ha":573,"o":"m 485 557 l 485 269 q 485 167 450 103 q 389 -10 279 -10 q 170 -10 108 103 q 73 168 73 269 q 73 362 108 434 q 151 523 235 557 l 240 557 l 276 484 q 217 463 191 399 q 171 349 171 269 q 171 178 191 138 q 224 73 279 73 q 335 73 367 138 q 387 178 387 269 l 387 513 l 480 557 z"},"]":{"x_min":0,"x_max":422,"ha":422,"o":"m 24 -117 l 24 -112 l 61 -34 l 202 -34 q 227 -34 227 -13 l 227 750 q 227 771 202 771 l 24 771 l 24 776 l 61 854 l 202 854 q 324 854 324 750 l 324 -13 q 324 -117 202 -117 z"},"U":{"x_min":0,"x_max":720,"ha":720,"o":"m 622 757 l 622 369 q 622 227 575 141 q 493 -10 348 -10 q 202 -10 120 141 q 73 227 73 369 q 73 508 120 597 q 186 721 292 757 l 297 757 l 333 684 q 247 643 204 559 q 171 494 171 369 q 171 245 204 179 q 257 73 348 73 q 438 73 491 179 q 524 245 524 369 l 524 713 l 617 757 z"},"o":{"x_min":0,"x_max":558,"ha":558,"o":"m 191 138 q 223 73 279 73 q 334 73 367 138 q 387 178 387 269 q 387 359 367 399 q 335 464 279 464 q 223 464 190 399 q 171 359 171 269 q 171 178 191 138 z m 73 269 q 73 370 108 434 q 169 547 279 547 q 388 547 449 434 q 485 369 485 269 q 485 167 450 103 q 388 -10 279 -10 q 171 -10 108 103 q 73 166 73 269 z"},"N":{"x_min":0,"x_max":710,"ha":710,"o":"m 88 -20 l 88 369 q 88 511 135 597 q 217 747 362 747 q 508 747 590 597 q 637 511 637 369 q 637 229 590 141 q 524 17 418 -20 l 413 -20 l 376 53 q 463 94 506 179 q 539 244 539 369 q 539 493 506 559 q 453 664 362 664 q 271 664 219 559 q 186 493 186 369 l 186 24 l 93 -20 z"},"+":{"x_min":0,"x_max":593,"ha":593,"o":"m 341 592 l 341 413 l 520 413 l 520 408 l 480 324 l 341 324 l 341 185 l 257 146 l 252 146 l 252 324 l 73 324 l 73 329 l 113 413 l 252 413 l 252 552 l 336 592 z"},"G":{"x_min":0,"x_max":695,"ha":695,"o":"m 622 410 l 622 369 q 622 227 575 141 q 494 -10 348 -10 q 202 -10 120 141 q 73 227 73 369 q 73 511 120 597 q 202 747 348 747 q 494 747 575 597 l 496 559 l 491 559 q 438 664 348 664 q 258 664 204 559 q 171 493 171 369 q 171 243 204 179 q 258 73 348 73 q 438 73 491 179 q 519 233 523 327 l 339 327 l 339 332 l 376 410 z"},"q":{"x_min":0,"x_max":568,"ha":568,"o":"m 191 138 q 223 73 279 73 q 334 73 367 138 q 387 178 387 269 q 387 359 367 399 q 335 464 279 464 q 223 464 190 399 q 171 359 171 269 q 171 178 191 138 z m 73 269 q 73 370 108 434 q 170 547 279 547 q 387 547 450 434 q 485 371 485 269 l 485 -176 l 392 -220 l 387 -220 l 387 41 q 338 -10 279 -10 q 169 -10 108 103 q 73 168 73 269 z"},"d":{"x_min":0,"x_max":573,"ha":573,"o":"m 73 269 q 73 370 108 434 q 169 547 279 547 q 342 547 387 496 l 387 713 l 480 757 l 485 757 l 485 269 q 485 167 450 103 q 388 -10 279 -10 q 171 -10 108 103 q 73 166 73 269 z m 171 269 q 171 177 191 138 q 224 73 279 73 q 334 73 367 138 q 387 178 387 269 q 387 359 367 399 q 334 463 279 463 q 223 463 191 398 q 171 358 171 269 z"},"1":{"x_min":0,"x_max":349,"ha":349,"o":"m 129 -20 l 129 661 l 10 556 l 10 656 l 129 757 q 227 757 227 661 l 227 24 l 134 -20 z"},"5":{"x_min":0,"x_max":620,"ha":620,"o":"m 73 141 l 152 179 l 157 179 q 211 73 301 73 q 370 73 413 123 q 449 165 449 229 q 449 302 406 339 q 364 376 300 376 q 250 376 208 345 l 106 395 l 162 632 q 188 737 312 737 l 506 737 l 506 732 l 469 654 l 320 654 q 263 654 248 597 l 202 431 q 247 462 301 462 q 404 462 472 403 q 547 339 547 230 q 547 131 481 61 q 415 -10 301 -10 q 155 -10 73 141 z"}}}
